<?xml version="1.0" encoding="iso-8859-1"?>
<!-- Generator: Adobe Illustrator 18.0.0, SVG Export Plug-In . SVG Version: 6.00 Build 0)  -->
<!DOCTYPE svg PUBLIC "-//W3C//DTD SVG 1.1//EN" "http://www.w3.org/Graphics/SVG/1.1/DTD/svg11.dtd">
<svg version="1.1" id="Capa_1" xmlns="http://www.w3.org/2000/svg" xmlns:xlink="http://www.w3.org/1999/xlink" x="0px" y="0px"
	 viewBox="0 0 495.601 495.601" style="enable-background:new 0 0 495.601 495.601;" xml:space="preserve">
<g id="XMLID_1_">
	<path id="XMLID_2_" d="M436.784,29.752H58.817C26.387,29.752,0,55.088,0,86.236v263.447c0,31.148,26.387,56.486,58.817,56.486
		h197.497c-0.129-3.617-0.42-6.99-0.42-10.781c0-14.492,1.058-27.435,2.905-39.088H58.817c-4.761,0-8.949-3.1-8.949-6.617V121.062
		l170.94,144.328c3.51,2.955,7.957,4.586,12.548,4.586l28.872,0.014c4.591,0,9.053-1.645,12.564-4.6l17.964-15.17
		c12.442-35.65,43.565-62.521,81.628-68.912l71.349-60.246v73.787c26.588,16.043,45.471,43.477,49.869,75.545V86.236
		C495.601,55.088,469.214,29.752,436.784,29.752z M247.8,220.463L81.54,79.619h332.52L247.8,220.463z"/>
	<path id="XMLID_75_" d="M473.959,324.96h-10.321v-40.282c0-39.637-32.245-71.883-71.873-71.883
		c-39.646,0-71.889,32.246-71.889,71.883v40.282h-10.337c-11.378,0-20.593,31.534-20.593,70.429
		c0,38.926,9.215,70.461,20.593,70.461h81.854h0.719h81.847c11.378,0,20.593-31.535,20.593-70.461
		C494.552,356.494,485.337,324.96,473.959,324.96z M410.316,427.457c0,5.711-4.631,10.342-10.337,10.342h-16.468
		c-5.707,0-10.337-4.631-10.337-10.342v-47.223c0-5.715,4.63-10.344,10.337-10.344h16.468c5.706,0,10.337,4.629,10.337,10.344
		V427.457z M429.683,324.96h-37.57h-0.719h-37.547v-40.282c0-20.916,16.995-37.926,37.918-37.926
		c20.907,0,37.917,17.01,37.917,37.926V324.96z"/>
</g>
<g>
</g>
<g>
</g>
<g>
</g>
<g>
</g>
<g>
</g>
<g>
</g>
<g>
</g>
<g>
</g>
<g>
</g>
<g>
</g>
<g>
</g>
<g>
</g>
<g>
</g>
<g>
</g>
<g>
</g>
</svg>
